<svg xmlns="http://www.w3.org/2000/svg" viewBox="-8 -10 168 152">
<g fill="#e2422e">
<rect x="28" y="0" width="15" height="15"/><rect x="12" y="14" width="15" height="15" fill="#c2362a"/>
<rect x="2" y="30" width="15" height="15"/><rect x="0" y="48" width="15" height="15" fill="#a92f21"/>
<rect x="2" y="66" width="15" height="15"/><rect x="10" y="83" width="15" height="15" fill="#c2362a"/>
<rect x="24" y="97" width="15" height="15"/><rect x="41" y="107" width="15" height="15" fill="#a92f21"/>
<rect x="59" y="112" width="15" height="15"/><rect x="77" y="110" width="15" height="15" fill="#c2362a"/>
<rect x="94" y="102" width="15" height="15"/><rect x="108" y="89" width="15" height="15" fill="#a92f21"/>
<rect x="44" y="90" width="15" height="15" fill="#7a1f16"/><rect x="62" y="94" width="15" height="15" fill="#7a1f16"/>
<rect x="124" y="80" width="17" height="21" rx="2"/><rect x="141" y="83.5" width="11" height="4.5"/><rect x="141" y="92.5" width="11" height="4.5"/>
</g></svg>
